<svg width="25" height="25" viewBox="0 0 25 25" fill="none" xmlns="http://www.w3.org/2000/svg">
<path d="M6.9043 7.86133C6.9043 8.59617 7.04903 9.32381 7.33024 10.0027C7.61145 10.6816 8.02363 11.2985 8.54324 11.8181C9.06285 12.3377 9.67972 12.7499 10.3586 13.0311C11.0375 13.3123 11.7652 13.457 12.5 13.457C13.2348 13.457 13.9625 13.3123 14.6414 13.0311C15.3203 12.7499 15.9371 12.3377 16.4568 11.8181C16.9764 11.2985 17.3885 10.6816 17.6698 10.0027C17.951 9.32381 18.0957 8.59617 18.0957 7.86133C18.0957 6.37725 17.5062 4.95397 16.4568 3.90457C15.4074 2.85517 13.9841 2.26563 12.5 2.26562C11.0159 2.26563 9.59264 2.85517 8.54324 3.90457C7.49384 4.95397 6.9043 6.37725 6.9043 7.86133Z" stroke="#F08703" stroke-width="1.5" stroke-miterlimit="10"/>
<path d="M2.24609 23.7109L2.60742 21.709C3.03428 19.3969 4.25755 17.3075 6.06475 15.8036C7.87195 14.2996 10.1489 13.4763 12.5 13.4766C14.8539 13.4771 17.1331 14.3032 18.9407 15.8111C20.7483 17.3189 21.9698 19.4129 22.3926 21.7285L22.7539 23.7305" stroke="#F08703" stroke-width="1.5" stroke-miterlimit="10"/>
</svg>
