<svg width="159" height="42" viewBox="0 0 159 42" fill="none" xmlns="http://www.w3.org/2000/svg">
<rect width="158.019" height="42" rx="5" fill="#F08703"/>
<path d="M61.3494 19.2898H59.2244C59.1638 18.9413 59.052 18.6326 58.8892 18.3636C58.7263 18.0909 58.5236 17.8598 58.2812 17.6705C58.0388 17.4811 57.7623 17.339 57.4517 17.2443C57.1448 17.1458 56.8134 17.0966 56.4573 17.0966C55.8248 17.0966 55.2642 17.2557 54.7755 17.5739C54.2869 17.8883 53.9043 18.3504 53.6278 18.9602C53.3513 19.5663 53.213 20.3068 53.213 21.1818C53.213 22.072 53.3513 22.822 53.6278 23.4318C53.9081 24.0379 54.2907 24.4962 54.7755 24.8068C55.2642 25.1136 55.8229 25.267 56.4517 25.267C56.8001 25.267 57.1259 25.2216 57.4289 25.1307C57.7358 25.036 58.0104 24.8977 58.2528 24.7159C58.499 24.5341 58.7055 24.3106 58.8721 24.0455C59.0426 23.7803 59.16 23.4773 59.2244 23.1364L61.3494 23.1477C61.2698 23.7008 61.0975 24.2197 60.8323 24.7045C60.571 25.1894 60.2282 25.6174 59.8039 25.9886C59.3797 26.3561 58.8835 26.6439 58.3153 26.8523C57.7471 27.0568 57.1164 27.1591 56.4233 27.1591C55.4005 27.1591 54.4876 26.9223 53.6846 26.4489C52.8816 25.9754 52.249 25.2917 51.7869 24.3977C51.3248 23.5038 51.0937 22.4318 51.0937 21.1818C51.0937 19.928 51.3267 18.8561 51.7926 17.9659C52.2585 17.072 52.893 16.3883 53.696 15.9148C54.499 15.4413 55.4081 15.2045 56.4233 15.2045C57.071 15.2045 57.6733 15.2955 58.2301 15.4773C58.7869 15.6591 59.2831 15.9261 59.7187 16.2784C60.1543 16.6269 60.5123 17.0549 60.7926 17.5625C61.0767 18.0663 61.2623 18.642 61.3494 19.2898ZM65.7002 27.1761C65.1472 27.1761 64.6491 27.0777 64.2059 26.8807C63.7665 26.6799 63.418 26.3845 63.1605 25.9943C62.9067 25.6042 62.7798 25.1231 62.7798 24.5511C62.7798 24.0587 62.8707 23.6515 63.0525 23.3295C63.2343 23.0076 63.4824 22.75 63.7968 22.5568C64.1112 22.3636 64.4654 22.2178 64.8593 22.1193C65.2571 22.017 65.668 21.9432 66.0923 21.8977C66.6037 21.8447 67.0184 21.7973 67.3366 21.7557C67.6548 21.7102 67.8858 21.642 68.0298 21.5511C68.1775 21.4564 68.2514 21.3106 68.2514 21.1136V21.0795C68.2514 20.6515 68.1245 20.3201 67.8707 20.0852C67.6169 19.8504 67.2514 19.733 66.7741 19.733C66.2703 19.733 65.8707 19.8428 65.5752 20.0625C65.2836 20.2822 65.0866 20.5417 64.9843 20.8409L63.0639 20.5682C63.2154 20.0379 63.4654 19.5947 63.8139 19.2386C64.1624 18.8788 64.5885 18.6098 65.0923 18.4318C65.5961 18.25 66.1529 18.1591 66.7627 18.1591C67.1832 18.1591 67.6018 18.2083 68.0184 18.3068C68.4351 18.4053 68.8158 18.5682 69.1605 18.7955C69.5052 19.0189 69.7817 19.3239 69.99 19.7102C70.2021 20.0966 70.3082 20.5795 70.3082 21.1591V27H68.3309V25.8011H68.2627C68.1377 26.0436 67.9616 26.2708 67.7343 26.483C67.5108 26.6913 67.2287 26.8598 66.8877 26.9886C66.5506 27.1136 66.1548 27.1761 65.7002 27.1761ZM66.2343 25.6648C66.6472 25.6648 67.0052 25.5833 67.3082 25.4205C67.6112 25.2538 67.8442 25.0341 68.0071 24.7614C68.1737 24.4886 68.2571 24.1913 68.2571 23.8693V22.8409C68.1927 22.8939 68.0828 22.9432 67.9275 22.9886C67.776 23.0341 67.6055 23.0739 67.4162 23.108C67.2268 23.142 67.0393 23.1723 66.8537 23.1989C66.668 23.2254 66.5071 23.2481 66.3707 23.267C66.0639 23.3087 65.7893 23.3769 65.5468 23.4716C65.3044 23.5663 65.1131 23.6989 64.973 23.8693C64.8328 24.036 64.7627 24.2519 64.7627 24.517C64.7627 24.8958 64.901 25.1818 65.1775 25.375C65.454 25.5682 65.8063 25.6648 66.2343 25.6648ZM76.7343 18.2727V19.8636H71.7173V18.2727H76.7343ZM72.9559 16.1818H75.0127V24.375C75.0127 24.6515 75.0544 24.8636 75.1377 25.0114C75.2249 25.1553 75.3385 25.2538 75.4787 25.3068C75.6188 25.3598 75.7741 25.3864 75.9446 25.3864C76.0733 25.3864 76.1908 25.3769 76.2968 25.358C76.4067 25.339 76.49 25.322 76.5468 25.3068L76.8934 26.9148C76.7836 26.9527 76.6264 26.9943 76.4218 27.0398C76.2211 27.0852 75.9749 27.1117 75.6832 27.1193C75.168 27.1345 74.704 27.0568 74.2912 26.8864C73.8783 26.7121 73.5506 26.4432 73.3082 26.0795C73.0696 25.7159 72.9521 25.2614 72.9559 24.7159V16.1818ZM82.2244 27.1705C81.3494 27.1705 80.5937 26.9886 79.9573 26.625C79.3248 26.2576 78.838 25.7386 78.4971 25.0682C78.1562 24.3939 77.9858 23.6004 77.9858 22.6875C77.9858 21.7898 78.1562 21.0019 78.4971 20.3239C78.8418 19.642 79.3229 19.1117 79.9403 18.733C80.5577 18.3504 81.2831 18.1591 82.1164 18.1591C82.6543 18.1591 83.1619 18.2462 83.6392 18.4205C84.1202 18.5909 84.5445 18.8561 84.9119 19.2159C85.2831 19.5758 85.5748 20.0341 85.7869 20.5909C85.999 21.1439 86.1051 21.803 86.1051 22.5682V23.1989H78.9517V21.8125H84.1335C84.1297 21.4186 84.0445 21.0682 83.8778 20.7614C83.7111 20.4508 83.4782 20.2064 83.1789 20.0284C82.8835 19.8504 82.5388 19.7614 82.1448 19.7614C81.7244 19.7614 81.3551 19.8636 81.0369 20.0682C80.7187 20.2689 80.4706 20.5341 80.2926 20.8636C80.1183 21.1894 80.0293 21.5473 80.0255 21.9375V23.1477C80.0255 23.6553 80.1183 24.0909 80.3039 24.4545C80.4895 24.8144 80.749 25.0909 81.0823 25.2841C81.4157 25.4735 81.8058 25.5682 82.2528 25.5682C82.552 25.5682 82.8229 25.5265 83.0653 25.4432C83.3077 25.3561 83.518 25.2292 83.696 25.0625C83.874 24.8958 84.0085 24.6894 84.0994 24.4432L86.0198 24.6591C85.8986 25.1667 85.6676 25.6098 85.3267 25.9886C84.9895 26.3636 84.5577 26.6553 84.0312 26.8636C83.5047 27.0682 82.9024 27.1705 82.2244 27.1705ZM91.6406 30.4545C90.9019 30.4545 90.2675 30.3542 89.7372 30.1534C89.2069 29.9564 88.7807 29.6913 88.4588 29.358C88.1368 29.0246 87.9133 28.6553 87.7883 28.25L89.6406 27.8011C89.7239 27.9716 89.8451 28.1402 90.0042 28.3068C90.1633 28.4773 90.3773 28.6174 90.6463 28.7273C90.919 28.8409 91.2618 28.8977 91.6747 28.8977C92.258 28.8977 92.741 28.7557 93.1235 28.4716C93.5061 28.1913 93.6974 27.7292 93.6974 27.0852V25.4318H93.5951C93.4891 25.6439 93.3338 25.8617 93.1292 26.0852C92.9285 26.3087 92.6614 26.4962 92.3281 26.6477C91.9985 26.7992 91.5838 26.875 91.0838 26.875C90.4133 26.875 89.8054 26.7178 89.2599 26.4034C88.7182 26.0852 88.2864 25.6117 87.9644 24.983C87.6463 24.3504 87.4872 23.5587 87.4872 22.608C87.4872 21.6496 87.6463 20.8409 87.9644 20.1818C88.2864 19.5189 88.7201 19.017 89.2656 18.6761C89.811 18.3314 90.419 18.1591 91.0894 18.1591C91.6008 18.1591 92.0213 18.2462 92.3508 18.4205C92.6841 18.5909 92.9493 18.7973 93.1463 19.0398C93.3432 19.2784 93.4929 19.5038 93.5951 19.7159H93.7088V18.2727H95.7372V27.142C95.7372 27.8883 95.5591 28.5057 95.2031 28.9943C94.847 29.483 94.3603 29.8485 93.7429 30.0909C93.1254 30.3333 92.4247 30.4545 91.6406 30.4545ZM91.6576 25.2614C92.0932 25.2614 92.4644 25.1553 92.7713 24.9432C93.0781 24.7311 93.311 24.4261 93.4701 24.0284C93.6292 23.6307 93.7088 23.1534 93.7088 22.5966C93.7088 22.0473 93.6292 21.5663 93.4701 21.1534C93.3148 20.7405 93.0838 20.4205 92.7769 20.1932C92.4739 19.9621 92.1008 19.8466 91.6576 19.8466C91.1993 19.8466 90.8167 19.9659 90.5099 20.2045C90.2031 20.4432 89.972 20.7708 89.8167 21.1875C89.6614 21.6004 89.5838 22.0701 89.5838 22.5966C89.5838 23.1307 89.6614 23.5985 89.8167 24C89.9758 24.3977 90.2088 24.7083 90.5156 24.9318C90.8262 25.1515 91.2069 25.2614 91.6576 25.2614ZM101.652 27.1705C100.8 27.1705 100.061 26.983 99.436 26.608C98.811 26.233 98.3262 25.7083 97.9815 25.0341C97.6406 24.3598 97.4701 23.572 97.4701 22.6705C97.4701 21.7689 97.6406 20.9792 97.9815 20.3011C98.3262 19.6231 98.811 19.0966 99.436 18.7216C100.061 18.3466 100.8 18.1591 101.652 18.1591C102.504 18.1591 103.243 18.3466 103.868 18.7216C104.493 19.0966 104.976 19.6231 105.317 20.3011C105.661 20.9792 105.834 21.7689 105.834 22.6705C105.834 23.572 105.661 24.3598 105.317 25.0341C104.976 25.7083 104.493 26.233 103.868 26.608C103.243 26.983 102.504 27.1705 101.652 27.1705ZM101.663 25.5227C102.125 25.5227 102.512 25.3958 102.822 25.142C103.133 24.8845 103.364 24.5398 103.516 24.108C103.671 23.6761 103.749 23.1951 103.749 22.6648C103.749 22.1307 103.671 21.6477 103.516 21.2159C103.364 20.7803 103.133 20.4337 102.822 20.1761C102.512 19.9186 102.125 19.7898 101.663 19.7898C101.19 19.7898 100.796 19.9186 100.481 20.1761C100.171 20.4337 99.9379 20.7803 99.7826 21.2159C99.6311 21.6477 99.5554 22.1307 99.5554 22.6648C99.5554 23.1951 99.6311 23.6761 99.7826 24.108C99.9379 24.5398 100.171 24.8845 100.481 25.142C100.796 25.3958 101.19 25.5227 101.663 25.5227ZM107.58 27V18.2727H109.574V19.7273H109.665C109.824 19.2235 110.097 18.8352 110.483 18.5625C110.873 18.286 111.318 18.1477 111.818 18.1477C111.932 18.1477 112.059 18.1534 112.199 18.1648C112.343 18.1723 112.462 18.1856 112.557 18.2045V20.0966C112.47 20.0663 112.331 20.0398 112.142 20.017C111.956 19.9905 111.776 19.9773 111.602 19.9773C111.227 19.9773 110.89 20.0587 110.591 20.2216C110.295 20.3807 110.062 20.6023 109.892 20.8864C109.722 21.1705 109.636 21.4981 109.636 21.8693V27H107.58ZM113.923 27V18.2727H115.98V27H113.923ZM114.957 17.0341C114.632 17.0341 114.351 16.9261 114.116 16.7102C113.882 16.4905 113.764 16.2273 113.764 15.9205C113.764 15.6098 113.882 15.3466 114.116 15.1307C114.351 14.911 114.632 14.8011 114.957 14.8011C115.287 14.8011 115.567 14.911 115.798 15.1307C116.033 15.3466 116.151 15.6098 116.151 15.9205C116.151 16.2273 116.033 16.4905 115.798 16.7102C115.567 16.9261 115.287 17.0341 114.957 17.0341ZM121.959 27.1705C121.084 27.1705 120.328 26.9886 119.692 26.625C119.059 26.2576 118.572 25.7386 118.231 25.0682C117.891 24.3939 117.72 23.6004 117.72 22.6875C117.72 21.7898 117.891 21.0019 118.231 20.3239C118.576 19.642 119.057 19.1117 119.675 18.733C120.292 18.3504 121.017 18.1591 121.851 18.1591C122.389 18.1591 122.896 18.2462 123.374 18.4205C123.855 18.5909 124.279 18.8561 124.646 19.2159C125.017 19.5758 125.309 20.0341 125.521 20.5909C125.733 21.1439 125.839 21.803 125.839 22.5682V23.1989H118.686V21.8125H123.868C123.864 21.4186 123.779 21.0682 123.612 20.7614C123.446 20.4508 123.213 20.2064 122.913 20.0284C122.618 19.8504 122.273 19.7614 121.879 19.7614C121.459 19.7614 121.089 19.8636 120.771 20.0682C120.453 20.2689 120.205 20.5341 120.027 20.8636C119.853 21.1894 119.764 21.5473 119.76 21.9375V23.1477C119.76 23.6553 119.853 24.0909 120.038 24.4545C120.224 24.8144 120.483 25.0909 120.817 25.2841C121.15 25.4735 121.54 25.5682 121.987 25.5682C122.286 25.5682 122.557 25.5265 122.8 25.4432C123.042 25.3561 123.252 25.2292 123.43 25.0625C123.608 24.8958 123.743 24.6894 123.834 24.4432L125.754 24.6591C125.633 25.1667 125.402 25.6098 125.061 25.9886C124.724 26.3636 124.292 26.6553 123.766 26.8636C123.239 27.0682 122.637 27.1705 121.959 27.1705ZM134.477 20.5795L132.602 20.7841C132.549 20.5947 132.456 20.4167 132.324 20.25C132.195 20.0833 132.021 19.9489 131.801 19.8466C131.581 19.7443 131.312 19.6932 130.994 19.6932C130.566 19.6932 130.206 19.786 129.915 19.9716C129.627 20.1572 129.485 20.3977 129.489 20.6932C129.485 20.947 129.578 21.1534 129.767 21.3125C129.96 21.4716 130.278 21.6023 130.722 21.7045L132.21 22.0227C133.036 22.2008 133.65 22.483 134.051 22.8693C134.456 23.2557 134.661 23.7614 134.665 24.3864C134.661 24.9356 134.5 25.4205 134.182 25.8409C133.867 26.2576 133.43 26.5833 132.869 26.8182C132.309 27.053 131.665 27.1705 130.937 27.1705C129.869 27.1705 129.009 26.947 128.358 26.5C127.706 26.0492 127.318 25.4223 127.193 24.6193L129.199 24.4261C129.29 24.8201 129.483 25.1174 129.778 25.3182C130.074 25.5189 130.458 25.6193 130.932 25.6193C131.42 25.6193 131.812 25.5189 132.108 25.3182C132.407 25.1174 132.557 24.8693 132.557 24.5739C132.557 24.3239 132.46 24.1174 132.267 23.9545C132.078 23.7917 131.782 23.6667 131.381 23.5795L129.892 23.267C129.055 23.0928 128.436 22.7992 128.034 22.3864C127.633 21.9697 127.434 21.4432 127.437 20.8068C127.434 20.2689 127.58 19.803 127.875 19.4091C128.174 19.0114 128.589 18.7045 129.119 18.4886C129.653 18.2689 130.269 18.1591 130.966 18.1591C131.989 18.1591 132.794 18.3769 133.381 18.8125C133.972 19.2481 134.337 19.8371 134.477 20.5795Z" fill="white"/>
<path d="M29.6499 14.125H24.595V19.0833H29.6499V14.125Z" stroke="white" stroke-width="2" stroke-linecap="round" stroke-linejoin="round"/>
<path d="M37.5933 14.125H32.5384V19.0833H37.5933V14.125Z" stroke="white" stroke-width="2" stroke-linecap="round" stroke-linejoin="round"/>
<path d="M37.5933 21.9167H32.5384V26.875H37.5933V21.9167Z" stroke="white" stroke-width="2" stroke-linecap="round" stroke-linejoin="round"/>
<path d="M29.6499 21.9167H24.595V26.875H29.6499V21.9167Z" stroke="white" stroke-width="2" stroke-linecap="round" stroke-linejoin="round"/>
</svg>
