<svg width="97" height="178" viewBox="0 0 97 178" fill="none" xmlns="http://www.w3.org/2000/svg">
<rect width="97" height="178" rx="10" fill="#F08703" fill-opacity="0.7"/>
<path d="M22.4777 128.091L25.5139 136.976H25.6364L28.6726 128.091H30.4517L26.526 139H24.6243L20.6986 128.091H22.4777ZM31.8993 139V130.818H33.492V139H31.8993ZM32.7036 129.556C32.4266 129.556 32.1887 129.463 31.9898 129.279C31.7945 129.091 31.6969 128.867 31.6969 128.608C31.6969 128.345 31.7945 128.121 31.9898 127.936C32.1887 127.748 32.4266 127.654 32.7036 127.654C32.9806 127.654 33.2168 127.748 33.4121 127.936C33.6109 128.121 33.7104 128.345 33.7104 128.608C33.7104 128.867 33.6109 129.091 33.4121 129.279C33.2168 129.463 32.9806 129.556 32.7036 129.556ZM39.1609 139.165C38.3548 139.165 37.6606 138.993 37.0782 138.648C36.4993 138.3 36.0519 137.812 35.7358 137.184C35.4233 136.551 35.2671 135.811 35.2671 134.962C35.2671 134.124 35.4233 133.386 35.7358 132.746C36.0519 132.107 36.4922 131.608 37.0569 131.25C37.625 130.891 38.2891 130.712 39.0491 130.712C39.5107 130.712 39.9581 130.788 40.3914 130.941C40.8246 131.093 41.2135 131.333 41.5579 131.66C41.9024 131.987 42.1741 132.411 42.3729 132.933C42.5718 133.451 42.6712 134.082 42.6712 134.824V135.388H36.1673V134.195H41.1105C41.1105 133.776 41.0253 133.405 40.8548 133.082C40.6843 132.755 40.4446 132.498 40.1357 132.31C39.8303 132.121 39.4716 132.027 39.0597 132.027C38.6123 132.027 38.2216 132.137 37.8878 132.358C37.5576 132.574 37.3019 132.858 37.1208 133.21C36.9432 133.558 36.8544 133.936 36.8544 134.344V135.277C36.8544 135.824 36.9503 136.289 37.1421 136.672C37.3374 137.056 37.6091 137.349 37.9571 137.551C38.3051 137.75 38.7117 137.849 39.1769 137.849C39.4787 137.849 39.754 137.807 40.0025 137.722C40.2511 137.633 40.466 137.501 40.6471 137.327C40.8282 137.153 40.9667 136.939 41.0625 136.683L42.57 136.955C42.4493 137.398 42.2326 137.787 41.9201 138.121C41.6112 138.451 41.2223 138.709 40.7536 138.893C40.2884 139.075 39.7575 139.165 39.1609 139.165ZM46.1975 139L43.7898 130.818H45.4358L47.0391 136.827H47.119L48.7277 130.818H50.3736L51.9716 136.8H52.0515L53.6442 130.818H55.2902L52.8878 139H51.2632L49.6013 133.093H49.4787L47.8168 139H46.1975ZM61.8207 139H60.0736L63.9993 128.091H65.901L69.8267 139H68.0796L64.9954 130.072H64.9102L61.8207 139ZM62.1137 134.728H67.7813V136.113H62.1137V134.728ZM72.867 128.091V139H71.2743V128.091H72.867ZM76.6023 128.091V139H75.0096V128.091H76.6023Z" fill="black"/>
<circle cx="48.5" cy="77.5" r="28.5" fill="white"/>
<path d="M49 72.5833V85.4166" stroke="black" stroke-width="1.5" stroke-linecap="round" stroke-linejoin="round"/>
<path d="M42.5835 79H55.4168" stroke="black" stroke-width="1.5" stroke-linecap="round" stroke-linejoin="round"/>
</svg>
